<svg width="54" height="54" viewBox="0 0 54 54" fill="none" xmlns="http://www.w3.org/2000/svg">
<g opacity="0.7">
<path d="M37.8252 25.4373C37.8252 24.3029 38.7448 23.3834 39.8791 23.3834C41.0134 23.3834 41.933 24.3029 41.933 25.4373V28.5184C41.933 29.6527 41.0134 30.5723 39.8791 30.5723C38.7448 30.5723 37.8252 29.6527 37.8252 28.5184V25.4373Z" fill="#E5E8EB"/>
<path fill-rule="evenodd" clip-rule="evenodd" d="M40.9295 28.5184V25.4373C40.9295 24.8571 40.4592 24.3868 39.8791 24.3868C39.299 24.3868 38.8287 24.8571 38.8287 25.4373V28.5184C38.8287 29.0985 39.299 29.5688 39.8791 29.5688C40.4592 29.5688 40.9295 29.0985 40.9295 28.5184ZM39.8791 23.3834C38.7448 23.3834 37.8252 24.3029 37.8252 25.4373V28.5184C37.8252 29.6527 38.7448 30.5723 39.8791 30.5723C41.0134 30.5723 41.933 29.6527 41.933 28.5184V25.4373C41.933 24.3029 41.0134 23.3834 39.8791 23.3834Z" fill="#E5E8EB"/>
<path d="M11.4668 25.5341C11.4668 24.3997 12.3864 23.4802 13.5207 23.4802C14.655 23.4802 15.5746 24.3997 15.5746 25.5341V28.6152C15.5746 29.7495 14.655 30.6691 13.5207 30.6691C12.3864 30.6691 11.4668 29.7495 11.4668 28.6152V25.5341Z" fill="#E5E8EB"/>
<path fill-rule="evenodd" clip-rule="evenodd" d="M14.5711 28.6152V25.5341C14.5711 24.9539 14.1008 24.4836 13.5207 24.4836C12.9406 24.4836 12.4703 24.9539 12.4703 25.5341V28.6152C12.4703 29.1953 12.9406 29.6656 13.5207 29.6656C14.1008 29.6656 14.5711 29.1953 14.5711 28.6152ZM13.5207 23.4802C12.3864 23.4802 11.4668 24.3997 11.4668 25.5341V28.6152C11.4668 29.7495 12.3864 30.6691 13.5207 30.6691C14.655 30.6691 15.5746 29.7495 15.5746 28.6152V25.5341C15.5746 24.3997 14.655 23.4802 13.5207 23.4802Z" fill="#E5E8EB"/>
<path fill-rule="evenodd" clip-rule="evenodd" d="M18.3139 15.1675C16.0452 15.1675 14.2061 17.0067 14.2061 19.2755V35.7073C14.2061 37.976 16.0452 39.8152 18.3139 39.8152H35.0874C37.3561 39.8152 39.1953 37.976 39.1953 35.7073V19.2755C39.1953 17.0067 37.3561 15.1675 35.0874 15.1675H18.3139ZM23.791 30.5721C23.4129 30.5721 23.1064 30.8786 23.1064 31.2567C23.1064 31.6349 23.4129 31.9414 23.791 31.9414H29.9527C30.3309 31.9414 30.6374 31.6349 30.6374 31.2567C30.6374 30.8786 30.3309 30.5721 29.9527 30.5721H23.791ZM23.6349 24.8457C23.6349 25.4642 23.1335 25.9657 22.515 25.9657C21.8965 25.9657 21.3951 25.4642 21.3951 24.8457C21.3951 24.2272 21.8965 23.7258 22.515 23.7258C23.1335 23.7258 23.6349 24.2272 23.6349 24.8457ZM32.1926 24.8457C32.1926 25.4642 31.6912 25.9657 31.0727 25.9657C30.4542 25.9657 29.9528 25.4642 29.9528 24.8457C29.9528 24.2272 30.4542 23.7258 31.0727 23.7258C31.6912 23.7258 32.1926 24.2272 32.1926 24.8457Z" fill="#E5E8EB"/>
<path fill-rule="evenodd" clip-rule="evenodd" d="M18.3139 16.171C16.5994 16.171 15.2095 17.5609 15.2095 19.2755V35.7073C15.2095 37.4219 16.5994 38.8118 18.3139 38.8118H35.0874C36.8019 38.8118 38.1918 37.4219 38.1918 35.7073V19.2755C38.1918 17.5609 36.8019 16.171 35.0874 16.171H18.3139ZM22.1029 31.2567C22.1029 30.3245 22.8587 29.5686 23.791 29.5686H29.9527C30.8851 29.5686 31.6409 30.3245 31.6409 31.2567C31.6409 32.189 30.8851 32.9449 29.9527 32.9449H23.791C22.8587 32.9449 22.1029 32.189 22.1029 31.2567ZM24.6384 24.8457C24.6384 26.0184 23.6878 26.9691 22.515 26.9691C21.3423 26.9691 20.3917 26.0184 20.3917 24.8457C20.3917 23.673 21.3423 22.7223 22.515 22.7223C23.6878 22.7223 24.6384 23.673 24.6384 24.8457ZM33.1961 24.8457C33.1961 26.0184 32.2454 26.9691 31.0727 26.9691C29.9 26.9691 28.9493 26.0184 28.9493 24.8457C28.9493 23.673 29.9 22.7223 31.0727 22.7223C32.2454 22.7223 33.1961 23.673 33.1961 24.8457ZM14.2061 19.2755C14.2061 17.0067 16.0452 15.1675 18.3139 15.1675H35.0874C37.3561 15.1675 39.1953 17.0067 39.1953 19.2755V35.7073C39.1953 37.976 37.3561 39.8152 35.0874 39.8152H18.3139C16.0452 39.8152 14.2061 37.976 14.2061 35.7073V19.2755ZM23.1064 31.2567C23.1064 30.8786 23.4129 30.5721 23.791 30.5721H29.9527C30.3309 30.5721 30.6374 30.8786 30.6374 31.2567C30.6374 31.6349 30.3309 31.9414 29.9527 31.9414H23.791C23.4129 31.9414 23.1064 31.6349 23.1064 31.2567ZM22.515 25.9657C23.1335 25.9657 23.6349 25.4642 23.6349 24.8457C23.6349 24.2272 23.1335 23.7258 22.515 23.7258C21.8965 23.7258 21.3951 24.2272 21.3951 24.8457C21.3951 25.4642 21.8965 25.9657 22.515 25.9657ZM31.0727 25.9657C31.6912 25.9657 32.1926 25.4642 32.1926 24.8457C32.1926 24.2272 31.6912 23.7258 31.0727 23.7258C30.4542 23.7258 29.9528 24.2272 29.9528 24.8457C29.9528 25.4642 30.4542 25.9657 31.0727 25.9657Z" fill="#E5E8EB"/>
<path d="M28.5833 12.0865C28.5833 13.0318 27.817 13.7981 26.8717 13.7981C25.9265 13.7981 25.1602 13.0318 25.1602 12.0865C25.1602 11.1412 25.9265 10.3748 26.8717 10.3748C27.817 10.3748 28.5833 11.1412 28.5833 12.0865Z" fill="#E5E8EB"/>
<path fill-rule="evenodd" clip-rule="evenodd" d="M26.8717 13.4098C27.6025 13.4098 28.195 12.8173 28.195 12.0865C28.195 11.3557 27.6025 10.7632 26.8717 10.7632C26.141 10.7632 25.5485 11.3557 25.5485 12.0865C25.5485 12.8173 26.141 13.4098 26.8717 13.4098ZM26.8717 13.7981C27.817 13.7981 28.5833 13.0318 28.5833 12.0865C28.5833 11.1412 27.817 10.3748 26.8717 10.3748C25.9265 10.3748 25.1602 11.1412 25.1602 12.0865C25.1602 13.0318 25.9265 13.7981 26.8717 13.7981Z" fill="#E5E8EB"/>
<path d="M26.1865 14.1405C26.1865 13.7624 26.493 13.4559 26.8712 13.4559C27.2493 13.4559 27.5558 13.7624 27.5558 14.1405V15.5099C27.5558 15.888 27.2493 16.1945 26.8712 16.1945C26.493 16.1945 26.1865 15.888 26.1865 15.5099V14.1405Z" fill="#E5E8EB"/>
<path fill-rule="evenodd" clip-rule="evenodd" d="M27.3049 15.5099V14.1405C27.3049 13.901 27.1107 13.7068 26.8712 13.7068C26.6316 13.7068 26.4374 13.901 26.4374 14.1405V15.5099C26.4374 15.7495 26.6316 15.9437 26.8712 15.9437C27.1107 15.9437 27.3049 15.7495 27.3049 15.5099ZM26.8712 13.4559C26.493 13.4559 26.1865 13.7624 26.1865 14.1405V15.5099C26.1865 15.888 26.493 16.1945 26.8712 16.1945C27.2493 16.1945 27.5558 15.888 27.5558 15.5099V14.1405C27.5558 13.7624 27.2493 13.4559 26.8712 13.4559Z" fill="#E5E8EB"/>
<path fill-rule="evenodd" clip-rule="evenodd" d="M40.634 5.97787L15.5804 49.2227L13.8492 48.2196L38.9028 4.97477L40.634 5.97787Z" fill="white"/>
<path fill-rule="evenodd" clip-rule="evenodd" d="M26.7559 51.5128C40.4277 51.5128 51.5109 40.4292 51.5109 26.7568C51.5109 13.0844 40.4277 2.00082 26.7559 2.00082C13.0841 2.00082 2.00082 13.0844 2.00082 26.7568C2.00082 40.4292 13.0841 51.5128 26.7559 51.5128ZM26.7559 53.5136C41.5328 53.5136 53.5118 41.5342 53.5118 26.7568C53.5118 11.9794 41.5328 0 26.7559 0C11.979 0 0 11.9794 0 26.7568C0 41.5342 11.979 53.5136 26.7559 53.5136Z" fill="white"/>
</g>
</svg>
