<svg width="248" height="36" viewBox="0 0 248 36" fill="none" xmlns="http://www.w3.org/2000/svg">
<path d="M237.4 35.9861C235.674 35.9861 234.388 35.4616 233.542 34.4126C232.696 33.3637 232.273 32.044 232.273 30.4537V0H237.704V9.38988H245.165V14.8715H237.704V30.4537H247.5V35.9861H237.4Z" fill="#18191B"/>
<path d="M220.77 14.7701H226.201V30.5045C226.201 32.3656 225.727 33.7529 224.78 34.6665C223.866 35.5463 222.665 35.9862 221.176 35.9862H212.344C210.619 35.9862 209.35 35.4786 208.538 34.4635C207.726 33.4145 207.32 32.0949 207.32 30.5045H201.889V14.8209C201.889 13.2305 202.295 11.9108 203.107 10.8619C203.919 9.81293 205.188 9.28845 206.914 9.28845H215.745C217.234 9.28845 218.435 9.74526 219.349 10.6589C220.296 11.5386 220.77 12.9091 220.77 14.7701ZM220.77 14.8209H207.32V30.5045H220.77V14.8209Z" fill="#18191B"/>
<path d="M177.678 14.8208V9.33912C176.155 9.30529 174.886 8.8654 173.871 8.01947C172.856 7.13969 172.348 5.83695 172.348 4.11125V0H177.779V9.33912H190.367C191.957 9.33912 193.26 9.76209 194.275 10.608C195.29 11.4201 195.797 12.689 195.797 14.4147V30.8597C195.797 32.3824 195.358 33.6175 194.478 34.5649C193.598 35.5124 192.228 35.9861 190.367 35.9861H177.728C175.867 35.9861 174.497 35.5124 173.617 34.5649C172.737 33.6175 172.297 32.3824 172.297 30.8597V19.9471C172.297 18.2214 172.805 16.9356 173.82 16.0897C174.869 15.2438 176.155 14.8208 177.678 14.8208ZM190.367 14.8208H177.728V30.5044H190.367V14.8208Z" fill="#18191B"/>
<path d="M141.913 20.0487H166.226V25.5304H141.913V20.0487Z" fill="#18191B"/>
<path d="M130.46 35.9861H116.908V30.5044H111.579V25.2258C111.579 23.5001 112.086 22.1973 113.101 21.3176C114.15 20.4378 115.453 19.9979 117.01 19.9979H130.409V14.8716H114.37V9.38989H130.714C132.439 9.38989 133.725 9.91437 134.571 10.9633C135.417 11.9785 135.84 13.2643 135.84 14.8208V30.7582C135.84 32.4839 135.332 33.7867 134.317 34.6664C133.302 35.5462 132.016 35.9861 130.46 35.9861ZM117.01 30.5044H130.409V25.4796H117.01V30.5044Z" fill="#18191B"/>
<path d="M81.1943 20.0487H105.507V25.5304H81.1943V20.0487Z" fill="#18191B"/>
<path d="M65.007 35.9861C63.2813 35.9861 61.9955 35.4616 61.1495 34.4126C60.3036 33.3637 59.8806 32.044 59.8806 30.4537V0H65.3115V9.38988H72.7727V14.8715H65.3115V30.4537H75.1074V35.9861H65.007Z" fill="#18191B"/>
<path d="M48.3779 14.7701H53.8088V30.5045C53.8088 32.3656 53.335 33.7529 52.3876 34.6665C51.474 35.5463 50.2728 35.9862 48.7839 35.9862H39.9523C38.2266 35.9862 36.9577 35.4786 36.1456 34.4635C35.3335 33.4145 34.9275 32.0949 34.9275 30.5045H29.4966V14.8209C29.4966 13.2305 29.9026 11.9108 30.7147 10.8619C31.5268 9.81293 32.7957 9.28845 34.5214 9.28845H43.353C44.8418 9.28845 46.0431 9.74526 46.9567 10.6589C47.9041 11.5386 48.3779 12.9091 48.3779 14.7701ZM48.3779 14.8209H34.9275V30.5045H48.3779V14.8209Z" fill="#18191B"/>
<path d="M5.82939 9.28845H18.0109V14.8209C19.5674 14.8209 20.8532 15.2608 21.8683 16.1405C22.8834 17.0203 23.391 18.323 23.391 20.0487V35.9862H18.0109V14.8209H5.9309V35.9862H0.5V14.8209H5.82939V9.28845Z" fill="#18191B"/>
</svg>
