<svg width="796" height="597" viewBox="0 0 796 597" fill="none" xmlns="http://www.w3.org/2000/svg">
<path d="M32 20C32 8.95432 40.9543 0 52 0H776C787.046 0 796 8.95431 796 20V527C796 538.046 787.046 547 776 547H52C40.9543 547 32 538.046 32 527V20Z" fill="#18191B"/>
<path fill-rule="evenodd" clip-rule="evenodd" d="M776 1H52C41.5066 1 33 9.5066 33 20V527C33 537.493 41.5066 546 52 546H776C786.493 546 795 537.493 795 527V20C795 9.50659 786.493 1 776 1ZM52 0C40.9543 0 32 8.95432 32 20V527C32 538.046 40.9543 547 52 547H776C787.046 547 796 538.046 796 527V20C796 8.95431 787.046 0 776 0H52Z" fill="white"/>
<path d="M15 39C15 27.9543 23.9543 19 35 19H757C768.046 19 777 27.9543 777 39V556C777 567.046 768.046 576 757 576H35C23.9543 576 15 567.046 15 556V39Z" fill="#18191B"/>
<path fill-rule="evenodd" clip-rule="evenodd" d="M757 20H35C24.5066 20 16 28.5066 16 39V556C16 566.493 24.5066 575 35 575H757C767.493 575 776 566.493 776 556V39C776 28.5066 767.493 20 757 20ZM35 19C23.9543 19 15 27.9543 15 39V556C15 567.046 23.9543 576 35 576H757C768.046 576 777 567.046 777 556V39C777 27.9543 768.046 19 757 19H35Z" fill="white"/>
<path d="M0 58C0 46.9543 8.95431 38 20 38H738C749.046 38 758 46.9543 758 58V577C758 588.046 749.046 597 738 597H20C8.95432 597 0 588.046 0 577V58Z" fill="#18191B"/>
<path fill-rule="evenodd" clip-rule="evenodd" d="M738 39H20C9.50659 39 1 47.5066 1 58V577C1 587.493 9.50661 596 20 596H738C748.493 596 757 587.493 757 577V58C757 47.5066 748.493 39 738 39ZM20 38C8.9543 38 0 46.9543 0 58V577C0 588.046 8.95432 597 20 597H738C749.046 597 758 588.046 758 577V58C758 46.9543 749.046 38 738 38H20Z" fill="white"/>
</svg>
