<svg width="170" height="18" viewBox="0 0 170 18" fill="none" xmlns="http://www.w3.org/2000/svg">
<g clip-path="url(#clip0_184_2674)">
<path d="M124.387 8.5139V13.4645H127.242V8.5139C128.078 7.20188 131.455 1.15688 131.769 0.530619H128.449C127.93 1.44653 124.387 8.5139 124.387 8.5139ZM125.128 4.28663L123.557 7.12203C122.783 5.77556 120.573 1.91622 119.864 0.521225H123.194L125.128 4.28663Z" fill="#ADBCC5"/>
<path d="M101.535 11.1943C101.873 11.201 102.21 11.1673 102.54 11.0941C102.765 11.0416 102.978 10.9476 103.169 10.817C103.318 10.715 103.434 10.5712 103.502 10.4037C103.568 10.2314 103.603 10.0482 103.602 9.86353C103.6 9.65463 103.544 9.44973 103.441 9.26794C103.338 9.08615 103.19 8.9334 103.011 8.82393C102.618 8.55255 101.941 8.25769 100.98 7.93934C100.562 7.79217 100.143 7.62308 99.7238 7.43207C99.3149 7.24889 98.935 7.00733 98.596 6.715C98.2603 6.42087 97.985 6.06463 97.7854 5.66601C97.5639 5.19816 97.4563 4.6848 97.4713 4.16768C97.4624 3.61954 97.5756 3.07626 97.8027 2.57697C98.0218 2.10951 98.344 1.6974 98.7452 1.37142C99.1835 1.02389 99.6856 0.7649 100.223 0.608945C100.859 0.422296 101.518 0.332042 102.181 0.341218C102.934 0.32757 103.686 0.420342 104.414 0.616773C104.951 0.76542 105.47 0.968995 105.965 1.22425L105.134 3.48662C104.751 3.29216 104.353 3.12931 103.943 2.9997C103.433 2.84898 102.904 2.77769 102.372 2.78834C101.682 2.78834 101.187 2.88332 100.886 3.07329C100.739 3.16472 100.619 3.29419 100.539 3.44798C100.46 3.60178 100.423 3.77417 100.434 3.94692C100.424 4.15655 100.48 4.36407 100.594 4.5403C100.72 4.71483 100.88 4.86188 101.065 4.97242C101.287 5.11114 101.522 5.22857 101.766 5.32313C102.031 5.42751 102.323 5.53449 102.644 5.64409C103.309 5.88938 103.887 6.13153 104.38 6.37055C104.83 6.58017 105.243 6.86091 105.603 7.20192C105.927 7.51679 106.177 7.89976 106.334 8.32293C106.505 8.82674 106.587 9.35669 106.574 9.88858C106.574 11.0785 106.155 12.0012 105.317 12.6567C104.48 13.3121 103.219 13.6404 101.535 13.6415C101.023 13.6449 100.511 13.6109 100.003 13.5397C99.5954 13.4823 99.1914 13.3991 98.7939 13.2907C98.4854 13.2072 98.1831 13.1026 97.8891 12.9776C97.6378 12.8665 97.4179 12.7631 97.2529 12.6645L98.065 10.3833C98.5154 10.6192 98.9892 10.8076 99.4788 10.9454C100.149 11.1245 100.841 11.2083 101.535 11.1943Z" fill="#ADBCC5"/>
<path d="M118.382 0.528999V3.05127H114.502V13.4754H111.634V3.05127H107.586V0.528999H118.382Z" fill="#ADBCC5"/>
<path d="M144.123 0.528999V3.05127H140.251V13.4754H137.375V3.05127H133.327V0.528999H144.123Z" fill="#ADBCC5"/>
<path d="M151.491 13.6509C149.478 13.6509 147.944 13.0769 146.891 11.9287C145.837 10.7806 145.31 9.14498 145.309 7.02195C145.293 6.06086 145.456 5.10517 145.791 4.20377C146.084 3.42337 146.534 2.711 147.114 2.11049C147.678 1.53865 148.361 1.09719 149.115 0.81726C149.918 0.518166 150.77 0.368519 151.628 0.375746C152.107 0.372404 152.586 0.412229 153.057 0.494735C153.438 0.563748 153.814 0.655769 154.184 0.770291C154.462 0.857022 154.732 0.965926 154.993 1.09595C155.208 1.20554 155.362 1.29165 155.464 1.35271L154.66 3.66519C154.236 3.44114 153.79 3.26269 153.329 3.13286C152.767 2.97806 152.185 2.90373 151.601 2.91211C151.173 2.91265 150.748 2.98734 150.345 3.13286C149.932 3.28242 149.559 3.52454 149.255 3.84054C148.917 4.20066 148.658 4.62733 148.496 5.09306C148.291 5.69776 148.194 6.33372 148.21 6.97185C148.204 7.52348 148.265 8.0738 148.391 8.61109C148.501 9.08541 148.708 9.53204 148.999 9.92311C149.288 10.2985 149.666 10.5979 150.098 10.7952C150.615 11.0227 151.176 11.1324 151.741 11.1161C152.106 11.1187 152.47 11.0941 152.831 11.0426C153.12 11.0011 153.407 10.9425 153.689 10.8672C153.915 10.8104 154.136 10.7366 154.35 10.6464C154.541 10.5598 154.714 10.48 154.869 10.4069L155.645 12.6959C155.124 12.9927 154.565 13.2151 153.983 13.3566C153.169 13.5651 152.331 13.6641 151.491 13.6509Z" fill="#ADBCC5"/>
<path d="M165.573 0.548027H168.61V13.4991H165.573V7.94888H160.68V13.4991H157.811V0.548027H160.68V5.42504H165.573V0.548027Z" fill="#ADBCC5"/>
</g>
<path d="M0 13.4066V0.760917H4.96914C6.08928 0.760917 6.94726 1.08702 7.54308 1.73924C8.15082 2.37938 8.45469 3.26108 8.45469 4.38433C8.45469 5.50759 8.15082 6.39533 7.54308 7.04755C6.94726 7.68768 6.08928 8.00775 4.96914 8.00775H1.50147V13.4066H0ZM1.50147 6.66709H4.96914C5.56496 6.66709 6.02374 6.51007 6.34549 6.19604C6.67914 5.88201 6.84597 5.43512 6.84597 4.85538V3.91329C6.84597 3.33354 6.67914 2.88666 6.34549 2.57263C6.02374 2.2586 5.56496 2.10158 4.96914 2.10158H1.50147V6.66709Z" fill="#ADBCC5"/>
<path d="M13.8334 13.624C13.2138 13.624 12.6477 13.5093 12.1353 13.2798C11.6229 13.0503 11.182 12.7242 10.8126 12.3015C10.4551 11.8667 10.1751 11.3534 9.97249 10.7615C9.76991 10.1576 9.66862 9.48127 9.66862 8.73243C9.66862 7.99567 9.76991 7.32534 9.97249 6.72144C10.1751 6.11754 10.4551 5.60422 10.8126 5.18149C11.182 4.74668 11.6229 4.41453 12.1353 4.18505C12.6477 3.95556 13.2138 3.84082 13.8334 3.84082C14.4531 3.84082 15.0131 3.95556 15.5136 4.18505C16.026 4.41453 16.4669 4.74668 16.8363 5.18149C17.2058 5.60422 17.4917 6.11754 17.6943 6.72144C17.8969 7.32534 17.9982 7.99567 17.9982 8.73243C17.9982 9.48127 17.8969 10.1576 17.6943 10.7615C17.4917 11.3534 17.2058 11.8667 16.8363 12.3015C16.4669 12.7242 16.026 13.0503 15.5136 13.2798C15.0131 13.5093 14.4531 13.624 13.8334 13.624ZM13.8334 12.3377C14.608 12.3377 15.2395 12.0962 15.7281 11.6131C16.2167 11.1299 16.461 10.3932 16.461 9.40277V8.0621C16.461 7.0717 16.2167 6.33494 15.7281 5.85182C15.2395 5.3687 14.608 5.12713 13.8334 5.12713C13.0588 5.12713 12.4273 5.3687 11.9387 5.85182C11.4501 6.33494 11.2058 7.0717 11.2058 8.0621V9.40277C11.2058 10.3932 11.4501 11.1299 11.9387 11.6131C12.4273 12.0962 13.0588 12.3377 13.8334 12.3377Z" fill="#ADBCC5"/>
<path d="M19.2975 4.05823H20.6917L21.6748 8.09834L22.6579 12.1928H22.6936L23.8197 8.09834L24.9816 4.05823H26.2507L27.4483 8.09834L28.5922 12.1928H28.628L29.5753 8.09834L30.5763 4.05823H31.9169L29.4681 13.4066H27.6985L26.4115 8.91361L25.6072 6.06922H25.5714L24.785 8.91361L23.498 13.4066H21.7641L19.2975 4.05823Z" fill="#ADBCC5"/>
<path d="M37.3632 13.624C36.7317 13.624 36.1597 13.5093 35.6473 13.2798C35.1468 13.0503 34.7118 12.7242 34.3424 12.3015C33.9849 11.8667 33.7049 11.3534 33.5023 10.7615C33.3117 10.1576 33.2163 9.48127 33.2163 8.73243C33.2163 7.99567 33.3117 7.32534 33.5023 6.72144C33.7049 6.11754 33.9849 5.60422 34.3424 5.18149C34.7118 4.74668 35.1468 4.41453 35.6473 4.18505C36.1597 3.95556 36.7317 3.84082 37.3632 3.84082C37.9829 3.84082 38.537 3.95556 39.0256 4.18505C39.5141 4.41453 39.9312 4.7346 40.2768 5.14525C40.6224 5.54383 40.8845 6.02091 41.0633 6.5765C41.2539 7.13209 41.3493 7.74203 41.3493 8.40633V9.09478H34.7178V9.52959C34.7178 9.92816 34.7774 10.3026 34.8965 10.6528C35.0276 10.991 35.2064 11.2869 35.4328 11.5406C35.6711 11.7942 35.9571 11.9935 36.2908 12.1384C36.6363 12.2834 37.0236 12.3559 37.4526 12.3559C38.0365 12.3559 38.543 12.217 38.9719 11.9392C39.4129 11.6614 39.7525 11.2628 39.9908 10.7434L41.0097 11.4862C40.7117 12.1264 40.247 12.6457 39.6154 13.0443C38.9839 13.4308 38.2331 13.624 37.3632 13.624ZM37.3632 5.05467C36.97 5.05467 36.6125 5.12713 36.2908 5.27207C35.969 5.40493 35.689 5.59818 35.4506 5.85182C35.2242 6.10546 35.0455 6.40741 34.9144 6.75767C34.7833 7.09586 34.7178 7.47028 34.7178 7.88093V8.00775H39.812V7.80846C39.812 6.97508 39.5856 6.31078 39.1328 5.81558C38.6919 5.30831 38.1021 5.05467 37.3632 5.05467Z" fill="#ADBCC5"/>
<path d="M43.7056 13.4066V4.05823H45.1356V5.77935H45.225C45.3918 5.33246 45.6897 4.93389 46.1187 4.58362C46.5477 4.23336 47.1376 4.05823 47.8883 4.05823H48.4424V5.50759H47.6023C46.8277 5.50759 46.22 5.65857 45.7791 5.96052C45.3501 6.25039 45.1356 6.61877 45.1356 7.06566V13.4066H43.7056Z" fill="#ADBCC5"/>
<path d="M53.6494 13.624C53.0178 13.624 52.4458 13.5093 51.9334 13.2798C51.4329 13.0503 50.998 12.7242 50.6286 12.3015C50.2711 11.8667 49.991 11.3534 49.7885 10.7615C49.5978 10.1576 49.5025 9.48127 49.5025 8.73243C49.5025 7.99567 49.5978 7.32534 49.7885 6.72144C49.991 6.11754 50.2711 5.60422 50.6286 5.18149C50.998 4.74668 51.4329 4.41453 51.9334 4.18505C52.4458 3.95556 53.0178 3.84082 53.6494 3.84082C54.269 3.84082 54.8231 3.95556 55.3117 4.18505C55.8003 4.41453 56.2174 4.7346 56.5629 5.14525C56.9085 5.54383 57.1707 6.02091 57.3494 6.5765C57.5401 7.13209 57.6354 7.74203 57.6354 8.40633V9.09478H51.0039V9.52959C51.0039 9.92816 51.0635 10.3026 51.1827 10.6528C51.3138 10.991 51.4925 11.2869 51.7189 11.5406C51.9572 11.7942 52.2432 11.9935 52.5769 12.1384C52.9225 12.2834 53.3098 12.3559 53.7387 12.3559C54.3226 12.3559 54.8291 12.217 55.2581 11.9392C55.699 11.6614 56.0386 11.2628 56.2769 10.7434L57.2958 11.4862C56.9979 12.1264 56.5331 12.6457 55.9016 13.0443C55.27 13.4308 54.5193 13.624 53.6494 13.624ZM53.6494 5.05467C53.2561 5.05467 52.8986 5.12713 52.5769 5.27207C52.2551 5.40493 51.9751 5.59818 51.7368 5.85182C51.5104 6.10546 51.3316 6.40741 51.2006 6.75767C51.0695 7.09586 51.0039 7.47028 51.0039 7.88093V8.00775H56.0982V7.80846C56.0982 6.97508 55.8718 6.31078 55.419 5.81558C54.9781 5.30831 54.3882 5.05467 53.6494 5.05467Z" fill="#ADBCC5"/>
<path d="M65.8904 11.8848H65.8189C65.2588 13.0443 64.3591 13.624 63.1198 13.624C62.5479 13.624 62.0295 13.5093 61.5647 13.2798C61.1 13.0503 60.7008 12.7242 60.3671 12.3015C60.0454 11.8788 59.7952 11.3655 59.6164 10.7615C59.4496 10.1576 59.3662 9.48127 59.3662 8.73243C59.3662 7.98359 59.4496 7.30722 59.6164 6.70332C59.7952 6.09942 60.0454 5.5861 60.3671 5.16337C60.7008 4.74064 61.1 4.41453 61.5647 4.18505C62.0295 3.95556 62.5479 3.84082 63.1198 3.84082C63.7633 3.84082 64.3115 3.98576 64.7643 4.27563C65.229 4.55343 65.5806 4.98824 65.8189 5.58006H65.8904V0H67.3204V13.4066H65.8904V11.8848ZM63.5131 12.3196C63.8348 12.3196 64.1387 12.2773 64.4247 12.1928C64.7226 12.1083 64.9788 11.9875 65.1933 11.8305C65.4078 11.6614 65.5746 11.4621 65.6938 11.2326C65.8249 10.991 65.8904 10.7193 65.8904 10.4173V6.93884C65.8904 6.6852 65.8249 6.44968 65.6938 6.23228C65.5746 6.00279 65.4078 5.80955 65.1933 5.65253C64.9788 5.49552 64.7226 5.37473 64.4247 5.29019C64.1387 5.19356 63.8348 5.14525 63.5131 5.14525C62.7028 5.14525 62.0652 5.40493 61.6005 5.92429C61.1358 6.43156 60.9034 7.1019 60.9034 7.93528V9.52959C60.9034 10.363 61.1358 11.0393 61.6005 11.5587C62.0652 12.066 62.7028 12.3196 63.5131 12.3196Z" fill="#ADBCC5"/>
<path d="M74.5847 0H76.0147V5.58006H76.0862C76.3245 4.98824 76.6701 4.55343 77.1229 4.27563C77.5877 3.98576 78.1418 3.84082 78.7853 3.84082C79.3572 3.84082 79.8756 3.95556 80.3403 4.18505C80.8051 4.41453 81.1983 4.74064 81.5201 5.16337C81.8537 5.5861 82.104 6.09942 82.2708 6.70332C82.4495 7.30722 82.5389 7.98359 82.5389 8.73243C82.5389 9.48127 82.4495 10.1576 82.2708 10.7615C82.104 11.3655 81.8537 11.8788 81.5201 12.3015C81.1983 12.7242 80.8051 13.0503 80.3403 13.2798C79.8756 13.5093 79.3572 13.624 78.7853 13.624C77.534 13.624 76.6343 13.0443 76.0862 11.8848H76.0147V13.4066H74.5847V0ZM78.392 12.3196C79.2023 12.3196 79.8399 12.066 80.3046 11.5587C80.7693 11.0393 81.0017 10.363 81.0017 9.52959V7.93528C81.0017 7.1019 80.7693 6.43156 80.3046 5.92429C79.8399 5.40493 79.2023 5.14525 78.392 5.14525C78.0703 5.14525 77.7604 5.19356 77.4625 5.29019C77.1765 5.37473 76.9263 5.49552 76.7118 5.65253C76.4973 5.80955 76.3245 6.00279 76.1934 6.23228C76.0743 6.44968 76.0147 6.6852 76.0147 6.93884V10.4173C76.0147 10.7193 76.0743 10.991 76.1934 11.2326C76.3245 11.4621 76.4973 11.6614 76.7118 11.8305C76.9263 11.9875 77.1765 12.1083 77.4625 12.1928C77.7604 12.2773 78.0703 12.3196 78.392 12.3196Z" fill="#ADBCC5"/>
<path d="M90.5502 4.05823H91.9623L87.8333 15.5807C87.7261 15.8585 87.6188 16.088 87.5116 16.2691C87.4043 16.4624 87.2732 16.6134 87.1183 16.7221C86.9634 16.8308 86.7668 16.9093 86.5285 16.9576C86.302 17.0059 86.022 17.0301 85.6883 17.0301H84.9555V15.7619H86.4033L87.1004 13.769L83.6506 4.05823H85.0806L87.2971 10.4173L87.7261 11.9392H87.8154L88.3159 10.4173L90.5502 4.05823Z" fill="#ADBCC5"/>
<defs>
<clipPath id="clip0_184_2674">
<rect width="73.848" height="13.9923" fill="white" transform="translate(96.1113)"/>
</clipPath>
</defs>
</svg>
